<?xml version="1.0" encoding="utf-8"?>
<!-- Generator: Adobe Illustrator 16.0.0, SVG Export Plug-In . SVG Version: 6.00 Build 0)  -->
<!DOCTYPE svg PUBLIC "-//W3C//DTD SVG 1.1//EN" "http://www.w3.org/Graphics/SVG/1.1/DTD/svg11.dtd">
<svg version="1.1" id="Calque_1" xmlns="http://www.w3.org/2000/svg" xmlns:xlink="http://www.w3.org/1999/xlink" x="0px" y="0px"
	 width="70px" height="70px" viewBox="0 0 70 70" enable-background="new 0 0 70 70" xml:space="preserve">
<path fill="#FBB040" stroke="#EF4136" stroke-width="2" stroke-miterlimit="10" d="M64.58,68.002c0,0-0.894-6.011-4.769-7.204
	c0,0,2.094-3.149-2.036-4.477c0,0,2.064-10.324-5.752-12.536c0,0,0.885-12.832-6.785-15.781c0,0,1.032-29.35-35.101-25.81
	c0,0-24.188,44.54,18.289,52.799c0,0,7.079,5.311,14.307,4.573c0,0,3.095,3.243,8.111,3.538c0,0,3.392,3.098,5.456,2.36
	C56.3,65.465,56.044,68.476,64.58,68.002z"/>
<path fill="#EC9673" d="M17.516,1.923c0,0,21.529,6.318,26.1,26.818l1.622-0.737C45.238,28.004,45.246,2.832,17.516,1.923z"/>
<path fill="#EC9673" d="M9.834,2.778c0,0,20.656,5.61,30.833,28.028l-1.917,1.327c0,0-16.721-22.276-30.262-26.477L9.834,2.778z"/>
<path fill="#EC9673" d="M7.046,9.22c0,0,10.761,3.229,28.754,25.755l-2.507,2.91c0,0-10.854-13.448-27.476-25.085L7.046,9.22z"/>
<path fill="#EC9673" d="M4.386,18.207c0,0,21.684,18.646,26.991,21.744l-1.625,3.244c0,0-11.415-5.613-26.135-20.505L4.386,18.207z"
	/>
<path fill="#EC9673" d="M3.323,29.627c0,0,7.552,8.701,24.956,16.812v3.54c0,0-9.679-3.314-24.234-15.004L3.323,29.627z"/>
<path fill="#EC9673" d="M7.249,42.66c0,0,10.116,9.09,21.03,10.269l0.147,2.064C28.426,54.993,14.241,52.302,7.249,42.66z"/>
<path fill="#EC9673" d="M43.616,28.741c0,0,4.497-0.207,8.222,10.295c0,0,0.109,2.389,0,4.159c0,0-6.6-13.274-11.171-12.389
	L43.616,28.741z"/>
<path fill="#EC9673" d="M38.75,32.133c0,0,5.898,1.475,11.355,13.126c0,0-1.326,1.58-1.77,2.339c0,0-5.752-8.898-12.536-12.624
	L38.75,32.133z"/>
<path fill="#EC9673" d="M33.293,37.885c0,0,5.467,1.679,12.983,10.942c0,0-0.89,1.3-1.038,2.185c0,0-11.646-10.915-13.861-11.061
	L33.293,37.885z"/>
<path fill="#EC9673" d="M29.753,43.195c0,0,2.802,2.212,14.453,9.586l-1.253,2.212c0,0-11.135-5.604-14.675-8.554L29.753,43.195z"/>
<path fill="#EC9673" d="M28.278,49.979c0,0,4.572,4.424,13.569,6.49v2.063c0,0-8.555-1.327-13.569-5.604V49.979z"/>
<path fill="#EC9673" d="M50.105,45.26c0,0,2.217-0.667,7.67,11.062c0,0,2.064-9.146-5.752-12.536L50.105,45.26z"/>
<path fill="#EC9673" d="M48.336,47.599c0,0,3.541,0.906,8.26,8.723l-1.182,2.212c0,0-7.903-9.776-9.138-9.411
	S48.336,47.599,48.336,47.599z"/>
<path fill="#EC9673" d="M45.238,51.012c0,0,6.885,7.227,8.825,8.259l-1.45,1.918c0,0-8.407-7.081-8.407-8.407L45.238,51.012z"/>
<path fill="#EC9673" d="M42.953,54.993c0,0,0.394,2.655,8.344,7.079l-0.453,1.032c0,0-4.573-0.736-8.111-3.538L42.953,54.993z"/>
<polygon fill="#EC9673" points="57.775,56.321 60.14,60.117 59.812,60.798 56.596,57.352 "/>
<path fill="#EC9673" d="M58.368,61.188c0,0-1.944-1.431-2.954-2.655c-1.005-1.226-1.351,0.737-1.351,0.737s2.583,2.949,3.959,2.802
	C59.397,61.926,58.368,61.188,58.368,61.188z"/>
<path fill="#EC9673" d="M52.687,61.188c0,0,3.17,2.069,3.996,2.069c0.829,0-0.883,1.273-0.883,1.273l-4.503-2.389L52.687,61.188z"/>
<polygon fill="#EC9673" points="58.737,61.188 64.272,66.643 64.58,68.002 58.022,62.072 "/>
<path fill="#EC9673" d="M57.208,63.064c0,0,4.986,5.555,6.333,4.805c1.35-0.749-1.881,0.261-2.641,0.232
	c-0.757-0.03-4.548-4.021-4.548-4.021L57.208,63.064z"/>
</svg>
