<?xml version="1.0" encoding="utf-8"?>
<!-- Generator: Adobe Illustrator 16.0.0, SVG Export Plug-In . SVG Version: 6.00 Build 0)  -->
<!DOCTYPE svg PUBLIC "-//W3C//DTD SVG 1.1//EN" "http://www.w3.org/Graphics/SVG/1.1/DTD/svg11.dtd">
<svg version="1.1" id="Calque_1" xmlns="http://www.w3.org/2000/svg" xmlns:xlink="http://www.w3.org/1999/xlink" x="0px" y="0px"
	 width="70px" height="70px" viewBox="0 0 70 70" enable-background="new 0 0 70 70" xml:space="preserve">
<polygon fill="#F68B64" stroke="#ED1C24" stroke-width="2" stroke-miterlimit="10" points="29.266,7.583 26.969,28.265 
	2.885,32.079 24.344,41.752 21.391,62.097 37.143,47.659 57.816,57.832 46.002,38.471 63.693,23.415 42.064,25.056 "/>
<polygon fill="#EE3849" points="31.345,13.574 31.345,32.209 11.298,32.209 29.575,39.629 23.887,56.693 35.482,41.816 
	53.203,53.63 40.295,38.753 57.828,26.283 37.889,31.534 "/>
<circle fill="#F7C875" cx="29.266" cy="7.583" r="1.094"/>
<circle fill="#F7C875" cx="28.61" cy="12.287" r="1.094"/>
<circle fill="#F7C875" cx="28.172" cy="17.233" r="1.094"/>
<circle fill="#F7C875" cx="27.735" cy="22.063" r="1.094"/>
<circle fill="#F7C875" cx="27.297" cy="26.648" r="1.094"/>
<circle fill="#F7C875" cx="23.797" cy="28.835" r="1.094"/>
<circle fill="#F7C875" cx="18.843" cy="29.492" r="1.094"/>
<circle fill="#F7C875" cx="14.37" cy="30.367" r="1.094"/>
<circle fill="#F7C875" cx="9.329" cy="31.023" r="1.094"/>
<circle fill="#F7C875" cx="3.094" cy="32.117" r="1.094"/>
<circle fill="#F7C875" cx="7.141" cy="34.039" r="1.094"/>
<circle fill="#F7C875" cx="12.392" cy="36.228" r="1.094"/>
<circle fill="#F7C875" cx="16.995" cy="38.415" r="1.094"/>
<circle fill="#F7C875" cx="22.137" cy="40.604" r="1.094"/>
<circle fill="#F7C875" cx="23.797" cy="45.316" r="1.094"/>
<circle fill="#F7C875" cx="23.23" cy="50.692" r="1.094"/>
<circle fill="#F7C875" cx="22.265" cy="56.641" r="1.094"/>
<circle fill="#F7C875" cx="28.829" cy="55.162" r="1.094"/>
<circle fill="#F7C875" cx="24.797" cy="59" r="1.094"/>
<circle fill="#F7C875" cx="21.391" cy="63.097" r="1.094"/>
<circle fill="#F7C875" cx="32.857" cy="51.99" r="1.094"/>
<circle fill="#F7C875" cx="37.123" cy="48.161" r="1.094"/>
<circle fill="#F7C875" cx="42.373" cy="50.129" r="1.094"/>
<circle fill="#F7C875" cx="47.078" cy="52.318" r="1.094"/>
<circle fill="#F7C875" cx="52.109" cy="55.162" r="1.094"/>
<circle fill="#F7C875" cx="54.577" cy="52.318" r="1.095"/>
<circle fill="#F7C875" cx="57.298" cy="56.849" r="1.095"/>
<circle fill="#F7C875" cx="52.109" cy="48.161" r="1.094"/>
<circle fill="#F7C875" cx="49.266" cy="44.223" r="1.094"/>
<circle fill="#F7C875" cx="46.859" cy="39.947" r="1.094"/>
<circle fill="#F7C875" cx="50.359" cy="35.133" r="1.094"/>
<circle fill="#F7C875" cx="54.577" cy="31.023" r="1.095"/>
<circle fill="#F7C875" cx="59.172" cy="27.304" r="1.094"/>
<circle fill="#F7C875" cx="57.827" cy="23.548" r="1.094"/>
<circle fill="#F7C875" cx="51.454" cy="24.235" r="1.095"/>
<circle fill="#F7C875" cx="44.89" cy="24.643" r="1.095"/>
<circle fill="#F7C875" cx="40.186" cy="22.454" r="1.094"/>
<circle fill="#F7C875" cx="36.686" cy="17.596" r="1.094"/>
<circle fill="#F7C875" cx="33.289" cy="12.943" r="1.094"/>
</svg>
