<?xml version="1.0" encoding="utf-8"?>
<!-- Generator: Adobe Illustrator 16.0.0, SVG Export Plug-In . SVG Version: 6.00 Build 0)  -->
<!DOCTYPE svg PUBLIC "-//W3C//DTD SVG 1.1//EN" "http://www.w3.org/Graphics/SVG/1.1/DTD/svg11.dtd">
<svg version="1.1" xmlns="http://www.w3.org/2000/svg" xmlns:xlink="http://www.w3.org/1999/xlink" x="0px" y="0px" width="1024px"
	 height="25px" viewBox="0 0 1024 25" enable-background="new 0 0 1024 25" xml:space="preserve">
<g id="Calque_1">
</g>
<g id="Calque_2">
	<path fill="#B58B3C" stroke="#8B5E3C" stroke-width="2" stroke-miterlimit="10" d="M3,19.5V4c0,0,4-4,10,0v6.861h7.5V15
		l-6.833,0.334L13.333,19.5C13.333,19.5,9.333,24.666,3,19.5z"/>
	<path fill="#B58B3C" stroke="#8B5E3C" stroke-width="2" stroke-miterlimit="10" d="M20.5,19.99v-15.5c0,0,4-4,10,0v6.861H38v4.138
		l-6.833,0.334l-0.333,4.166C30.833,19.99,26.833,25.156,20.5,19.99z"/>
	<path fill="#B58B3C" stroke="#8B5E3C" stroke-width="2" stroke-miterlimit="10" d="M38,19.99v-15.5c0,0,4-4,10,0v6.861h7.5v4.138
		l-6.833,0.334l-0.333,4.166C48.333,19.99,44.333,25.156,38,19.99z"/>
	<path fill="#B58B3C" stroke="#8B5E3C" stroke-width="2" stroke-miterlimit="10" d="M55.5,19.99v-15.5c0,0,4-4,10,0v6.861H73v4.138
		l-6.833,0.334l-0.333,4.166C65.833,19.99,61.833,25.156,55.5,19.99z"/>
	<path fill="#B58B3C" stroke="#8B5E3C" stroke-width="2" stroke-miterlimit="10" d="M73,19.99v-15.5c0,0,4-4,10,0v6.861h7.5v4.138
		l-6.833,0.334l-0.333,4.166C83.333,19.99,79.333,25.156,73,19.99z"/>
	<path fill="#B58B3C" stroke="#8B5E3C" stroke-width="2" stroke-miterlimit="10" d="M90.5,19.99v-15.5c0,0,4-4,10,0v6.861h7.5v4.138
		l-6.833,0.334l-0.333,4.166C100.833,19.99,96.833,25.156,90.5,19.99z"/>
	<path fill="#B58B3C" stroke="#8B5E3C" stroke-width="2" stroke-miterlimit="10" d="M108,19.99v-15.5c0,0,4-4,10,0v6.861h7.5v4.138
		l-6.833,0.334l-0.333,4.166C118.333,19.99,114.333,25.156,108,19.99z"/>
	<path fill="#B58B3C" stroke="#8B5E3C" stroke-width="2" stroke-miterlimit="10" d="M125.5,19.99v-15.5c0,0,4-4,10,0v6.861h7.5
		v4.138l-6.833,0.334l-0.333,4.166C135.833,19.99,131.833,25.156,125.5,19.99z"/>
	<path fill="#B58B3C" stroke="#8B5E3C" stroke-width="2" stroke-miterlimit="10" d="M143,19.99v-15.5c0,0,4-4,10,0v6.861h7.5v4.138
		l-6.833,0.334l-0.333,4.166C153.333,19.99,149.333,25.156,143,19.99z"/>
	<path fill="#B58B3C" stroke="#8B5E3C" stroke-width="2" stroke-miterlimit="10" d="M160.5,19.99v-15.5c0,0,4-4,10,0v6.861h7.5
		v4.138l-6.833,0.334l-0.333,4.166C170.833,19.99,166.833,25.156,160.5,19.99z"/>
	<path fill="#B58B3C" stroke="#8B5E3C" stroke-width="2" stroke-miterlimit="10" d="M178,19.99v-15.5c0,0,4-4,10,0v6.861h7.5v4.138
		l-6.833,0.334l-0.333,4.166C188.333,19.99,184.333,25.156,178,19.99z"/>
	<path fill="#B58B3C" stroke="#8B5E3C" stroke-width="2" stroke-miterlimit="10" d="M195.5,19.99v-15.5c0,0,4-4,10,0v6.861h7.5
		v4.138l-6.833,0.334l-0.333,4.166C205.833,19.99,201.833,25.156,195.5,19.99z"/>
	<path fill="#B58B3C" stroke="#8B5E3C" stroke-width="2" stroke-miterlimit="10" d="M213,19.99v-15.5c0,0,4-4,10,0v6.861h7.5v4.138
		l-6.833,0.334l-0.333,4.166C223.333,19.99,219.333,25.156,213,19.99z"/>
	<path fill="#B58B3C" stroke="#8B5E3C" stroke-width="2" stroke-miterlimit="10" d="M230.5,19.99v-15.5c0,0,4-4,10,0v6.861h7.5
		v4.138l-6.833,0.334l-0.333,4.166C240.833,19.99,236.833,25.156,230.5,19.99z"/>
	<path fill="#B58B3C" stroke="#8B5E3C" stroke-width="2" stroke-miterlimit="10" d="M248,19.99v-15.5c0,0,4-4,10,0v6.861h7.5v4.138
		l-6.833,0.334l-0.333,4.166C258.333,19.99,254.333,25.156,248,19.99z"/>
	<path fill="#B58B3C" stroke="#8B5E3C" stroke-width="2" stroke-miterlimit="10" d="M265.5,19.99v-15.5c0,0,4-4,10,0v6.861h7.5
		v4.138l-6.833,0.334l-0.333,4.166C275.833,19.99,271.833,25.156,265.5,19.99z"/>
	<path fill="#B58B3C" stroke="#8B5E3C" stroke-width="2" stroke-miterlimit="10" d="M283,19.99v-15.5c0,0,4-4,10,0v6.861h7.5v4.138
		l-6.833,0.334l-0.333,4.166C293.333,19.99,289.333,25.156,283,19.99z"/>
	<path fill="#B58B3C" stroke="#8B5E3C" stroke-width="2" stroke-miterlimit="10" d="M300.5,19.99v-15.5c0,0,4-4,10,0v6.861h7.5
		v4.138l-6.833,0.334l-0.333,4.166C310.833,19.99,306.833,25.156,300.5,19.99z"/>
	<path fill="#B58B3C" stroke="#8B5E3C" stroke-width="2" stroke-miterlimit="10" d="M318,19.99v-15.5c0,0,4-4,10,0v6.861h7.5v4.138
		l-6.833,0.334l-0.333,4.166C328.333,19.99,324.333,25.156,318,19.99z"/>
	<path fill="#B58B3C" stroke="#8B5E3C" stroke-width="2" stroke-miterlimit="10" d="M335.5,19.99v-15.5c0,0,4-4,10,0v6.861h7.5
		v4.138l-6.833,0.334l-0.333,4.166C345.833,19.99,341.833,25.156,335.5,19.99z"/>
	<path fill="#B58B3C" stroke="#8B5E3C" stroke-width="2" stroke-miterlimit="10" d="M353,19.99v-15.5c0,0,4-4,10,0v6.861h7.5v4.138
		l-6.833,0.334l-0.333,4.166C363.333,19.99,359.333,25.156,353,19.99z"/>
	<path fill="#B58B3C" stroke="#8B5E3C" stroke-width="2" stroke-miterlimit="10" d="M370.5,19.99v-15.5c0,0,4-4,10,0v6.861h7.5
		v4.138l-6.833,0.334l-0.333,4.166C380.833,19.99,376.833,25.156,370.5,19.99z"/>
	<path fill="#B58B3C" stroke="#8B5E3C" stroke-width="2" stroke-miterlimit="10" d="M388,19.99v-15.5c0,0,4-4,10,0v6.861h7.5v4.138
		l-6.833,0.334l-0.333,4.166C398.333,19.99,394.333,25.156,388,19.99z"/>
	<path fill="#B58B3C" stroke="#8B5E3C" stroke-width="2" stroke-miterlimit="10" d="M405.5,19.99v-15.5c0,0,4-4,10,0v6.861h7.5
		v4.138l-6.833,0.334l-0.333,4.166C415.833,19.99,411.833,25.156,405.5,19.99z"/>
	<path fill="#B58B3C" stroke="#8B5E3C" stroke-width="2" stroke-miterlimit="10" d="M423,19.99v-15.5c0,0,4-4,10,0v6.861h7.5v4.138
		l-6.833,0.334l-0.333,4.166C433.333,19.99,429.333,25.156,423,19.99z"/>
	<path fill="#B58B3C" stroke="#8B5E3C" stroke-width="2" stroke-miterlimit="10" d="M440.5,19.99v-15.5c0,0,4-4,10,0v6.861h7.5
		v4.138l-6.833,0.334l-0.333,4.166C450.833,19.99,446.833,25.156,440.5,19.99z"/>
	<path fill="#B58B3C" stroke="#8B5E3C" stroke-width="2" stroke-miterlimit="10" d="M458,19.99v-15.5c0,0,4-4,10,0v6.861h7.5v4.138
		l-6.833,0.334l-0.333,4.166C468.333,19.99,464.333,25.156,458,19.99z"/>
	<path fill="#B58B3C" stroke="#8B5E3C" stroke-width="2" stroke-miterlimit="10" d="M475.5,19.99v-15.5c0,0,4-4,10,0v6.861h7.5
		v4.138l-6.833,0.334l-0.333,4.166C485.833,19.99,481.833,25.156,475.5,19.99z"/>
	<path fill="#B58B3C" stroke="#8B5E3C" stroke-width="2" stroke-miterlimit="10" d="M493,19.99v-15.5c0,0,4-4,10,0v6.861h7.5v4.138
		l-6.833,0.334l-0.333,4.166C503.333,19.99,499.333,25.156,493,19.99z"/>
	<path fill="#B58B3C" stroke="#8B5E3C" stroke-width="2" stroke-miterlimit="10" d="M510.5,19.99v-15.5c0,0,4-4,10,0v6.861h7.5
		v4.138l-6.833,0.334l-0.333,4.166C520.834,19.99,516.833,25.156,510.5,19.99z"/>
	<path fill="#B58B3C" stroke="#8B5E3C" stroke-width="2" stroke-miterlimit="10" d="M528,19.99v-15.5c0,0,4-4,10,0v6.861h7.5v4.138
		l-6.833,0.334l-0.333,4.166C538.334,19.99,534.333,25.156,528,19.99z"/>
	<path fill="#B58B3C" stroke="#8B5E3C" stroke-width="2" stroke-miterlimit="10" d="M545.5,19.99v-15.5c0,0,4-4,10,0v6.861h7.5
		v4.138l-6.833,0.334l-0.333,4.166C555.834,19.99,551.833,25.156,545.5,19.99z"/>
	<path fill="#B58B3C" stroke="#8B5E3C" stroke-width="2" stroke-miterlimit="10" d="M563,19.99v-15.5c0,0,4-4,10,0v6.861h7.5v4.138
		l-6.833,0.334l-0.333,4.166C573.334,19.99,569.333,25.156,563,19.99z"/>
	<path fill="#B58B3C" stroke="#8B5E3C" stroke-width="2" stroke-miterlimit="10" d="M580.5,19.99v-15.5c0,0,4-4,10,0v6.861h7.5
		v4.138l-6.833,0.334l-0.333,4.166C590.834,19.99,586.833,25.156,580.5,19.99z"/>
	<path fill="#B58B3C" stroke="#8B5E3C" stroke-width="2" stroke-miterlimit="10" d="M598,19.99v-15.5c0,0,4-4,10,0v6.861h7.5v4.138
		l-6.833,0.334l-0.333,4.166C608.334,19.99,604.333,25.156,598,19.99z"/>
	<path fill="#B58B3C" stroke="#8B5E3C" stroke-width="2" stroke-miterlimit="10" d="M615.5,19.99v-15.5c0,0,4-4,10,0v6.861h7.5
		v4.138l-6.833,0.334l-0.333,4.166C625.834,19.99,621.833,25.156,615.5,19.99z"/>
	<path fill="#B58B3C" stroke="#8B5E3C" stroke-width="2" stroke-miterlimit="10" d="M633,19.99v-15.5c0,0,4-4,10,0v6.861h7.5v4.138
		l-6.833,0.334l-0.333,4.166C643.334,19.99,639.333,25.156,633,19.99z"/>
	<path fill="#B58B3C" stroke="#8B5E3C" stroke-width="2" stroke-miterlimit="10" d="M650.5,19.99v-15.5c0,0,4-4,10,0v6.861h7.5
		v4.138l-6.833,0.334l-0.333,4.166C660.834,19.99,656.833,25.156,650.5,19.99z"/>
	<path fill="#B58B3C" stroke="#8B5E3C" stroke-width="2" stroke-miterlimit="10" d="M668,19.99v-15.5c0,0,4-4,10,0v6.861h7.5v4.138
		l-6.833,0.334l-0.333,4.166C678.334,19.99,674.333,25.156,668,19.99z"/>
	<path fill="#B58B3C" stroke="#8B5E3C" stroke-width="2" stroke-miterlimit="10" d="M685.5,19.99v-15.5c0,0,4-4,10,0v6.861h7.5
		v4.138l-6.833,0.334l-0.333,4.166C695.834,19.99,691.833,25.156,685.5,19.99z"/>
	<path fill="#B58B3C" stroke="#8B5E3C" stroke-width="2" stroke-miterlimit="10" d="M703,19.99v-15.5c0,0,4-4,10,0v6.861h7.5v4.138
		l-6.833,0.334l-0.333,4.166C713.334,19.99,709.333,25.156,703,19.99z"/>
	<path fill="#B58B3C" stroke="#8B5E3C" stroke-width="2" stroke-miterlimit="10" d="M720.5,19.99v-15.5c0,0,4-4,10,0v6.861h7.5
		v4.138l-6.833,0.334l-0.333,4.166C730.834,19.99,726.833,25.156,720.5,19.99z"/>
	<path fill="#B58B3C" stroke="#8B5E3C" stroke-width="2" stroke-miterlimit="10" d="M738,19.99v-15.5c0,0,4-4,10,0v6.861h7.5v4.138
		l-6.833,0.334l-0.333,4.166C748.334,19.99,744.333,25.156,738,19.99z"/>
	<path fill="#B58B3C" stroke="#8B5E3C" stroke-width="2" stroke-miterlimit="10" d="M755.5,19.99v-15.5c0,0,4-4,10,0v6.861h7.5
		v4.138l-6.833,0.334l-0.333,4.166C765.834,19.99,761.833,25.156,755.5,19.99z"/>
	<path fill="#B58B3C" stroke="#8B5E3C" stroke-width="2" stroke-miterlimit="10" d="M773,19.99v-15.5c0,0,4-4,10,0v6.861h7.5v4.138
		l-6.833,0.334l-0.333,4.166C783.334,19.99,779.333,25.156,773,19.99z"/>
	<path fill="#B58B3C" stroke="#8B5E3C" stroke-width="2" stroke-miterlimit="10" d="M790.5,19.99v-15.5c0,0,4-4,10,0v6.861h7.5
		v4.138l-6.833,0.334l-0.333,4.166C800.834,19.99,796.833,25.156,790.5,19.99z"/>
	<path fill="#B58B3C" stroke="#8B5E3C" stroke-width="2" stroke-miterlimit="10" d="M808,19.99v-15.5c0,0,4-4,10,0v6.861h7.5v4.138
		l-6.833,0.334l-0.333,4.166C818.334,19.99,814.333,25.156,808,19.99z"/>
	<path fill="#B58B3C" stroke="#8B5E3C" stroke-width="2" stroke-miterlimit="10" d="M825.5,19.99v-15.5c0,0,4-4,10,0v6.861h7.5
		v4.138l-6.833,0.334l-0.333,4.166C835.834,19.99,831.833,25.156,825.5,19.99z"/>
	<path fill="#B58B3C" stroke="#8B5E3C" stroke-width="2" stroke-miterlimit="10" d="M843,19.99v-15.5c0,0,4-4,10,0v6.861h7.5v4.138
		l-6.833,0.334l-0.333,4.166C853.334,19.99,849.333,25.156,843,19.99z"/>
	<path fill="#B58B3C" stroke="#8B5E3C" stroke-width="2" stroke-miterlimit="10" d="M860.5,19.99v-15.5c0,0,4-4,10,0v6.861h7.5
		v4.138l-6.833,0.334l-0.333,4.166C870.834,19.99,866.833,25.156,860.5,19.99z"/>
	<path fill="#B58B3C" stroke="#8B5E3C" stroke-width="2" stroke-miterlimit="10" d="M878,19.99v-15.5c0,0,4-4,10,0v6.861h7.5v4.138
		l-6.833,0.334l-0.333,4.166C888.334,19.99,884.333,25.156,878,19.99z"/>
	<path fill="#B58B3C" stroke="#8B5E3C" stroke-width="2" stroke-miterlimit="10" d="M895.5,19.99v-15.5c0,0,4-4,10,0v6.861h7.5
		v4.138l-6.833,0.334l-0.333,4.166C905.834,19.99,901.833,25.156,895.5,19.99z"/>
	<path fill="#B58B3C" stroke="#8B5E3C" stroke-width="2" stroke-miterlimit="10" d="M913,19.99v-15.5c0,0,4-4,10,0v6.861h7.5v4.138
		l-6.833,0.334l-0.333,4.166C923.334,19.99,919.333,25.156,913,19.99z"/>
	<path fill="#B58B3C" stroke="#8B5E3C" stroke-width="2" stroke-miterlimit="10" d="M930.5,19.99v-15.5c0,0,4-4,10,0v6.861h7.5
		v4.138l-6.833,0.334l-0.333,4.166C940.834,19.99,936.833,25.156,930.5,19.99z"/>
	<path fill="#B58B3C" stroke="#8B5E3C" stroke-width="2" stroke-miterlimit="10" d="M948,19.99v-15.5c0,0,4-4,10,0v6.861h7.5v4.138
		l-6.833,0.334l-0.333,4.166C958.334,19.99,954.333,25.156,948,19.99z"/>
	<path fill="#B58B3C" stroke="#8B5E3C" stroke-width="2" stroke-miterlimit="10" d="M965.5,19.99v-15.5c0,0,4-4,10,0v6.861h7.5
		v4.138l-6.833,0.334l-0.333,4.166C975.834,19.99,971.833,25.156,965.5,19.99z"/>
	<path fill="#B58B3C" stroke="#8B5E3C" stroke-width="2" stroke-miterlimit="10" d="M983,19.99v-15.5c0,0,4-4,10,0v6.861h7.5v4.138
		l-6.833,0.334l-0.333,4.166C993.334,19.99,989.333,25.156,983,19.99z"/>
	<path fill="#B58B3C" stroke="#8B5E3C" stroke-width="2" stroke-miterlimit="10" d="M1000.5,19.99v-15.5c0,0,4-4,10,0v6.861h7.5
		v4.138l-6.833,0.334l-0.333,4.166C1010.834,19.99,1006.833,25.156,1000.5,19.99z"/>
	<path fill="#B58B3C" stroke="#8B5E3C" stroke-width="2" stroke-miterlimit="10" d="M1018,19.99v-15.5c0,0,4-4,10,0v6.861h7.5v4.138
		l-6.833,0.334l-0.333,4.166C1028.334,19.99,1024.333,25.156,1018,19.99z"/>
</g>
</svg>
