<?xml version="1.0" encoding="utf-8"?>
<!-- Generator: Adobe Illustrator 16.0.0, SVG Export Plug-In . SVG Version: 6.00 Build 0)  -->
<!DOCTYPE svg PUBLIC "-//W3C//DTD SVG 1.1//EN" "http://www.w3.org/Graphics/SVG/1.1/DTD/svg11.dtd">
<svg version="1.1" id="Calque_1" xmlns="http://www.w3.org/2000/svg" xmlns:xlink="http://www.w3.org/1999/xlink" x="0px" y="0px"
	 width="25px" height="600px" viewBox="0 0 25 600" enable-background="new 0 0 25 600" xml:space="preserve">
<path fill="#B58B3C" stroke="#8B5E3C" stroke-width="2" stroke-miterlimit="10" d="M5.711,0.036L21.211,0c0,0,4.01,3.991,0.023,10
	l-6.861,0.016l0.018,7.5l-4.139,0.01l-0.35-6.833L5.735,10.37C5.735,10.37,0.56,6.38,5.711,0.036z"/>
<path fill="#B58B3C" stroke="#8B5E3C" stroke-width="2" stroke-miterlimit="10" d="M5.711,17.561l15.5-0.036
	c0,0,4.01,3.991,0.023,10l-6.861,0.016l0.018,7.5l-4.139,0.01l-0.35-6.833l-4.167-0.323C5.735,27.895,0.56,23.906,5.711,17.561z"/>
<path fill="#B58B3C" stroke="#8B5E3C" stroke-width="2" stroke-miterlimit="10" d="M5.711,35.086l15.5-0.036
	c0,0,4.01,3.991,0.023,10l-6.861,0.016l0.018,7.5l-4.139,0.01l-0.35-6.833L5.735,45.42C5.735,45.42,0.56,41.431,5.711,35.086z"/>
<path fill="#B58B3C" stroke="#8B5E3C" stroke-width="2" stroke-miterlimit="10" d="M5.711,52.612l15.5-0.036
	c0,0,4.01,3.991,0.023,10l-6.861,0.016l0.018,7.5l-4.139,0.01l-0.35-6.833l-4.167-0.323C5.735,62.946,0.56,58.957,5.711,52.612z"/>
<path fill="#B58B3C" stroke="#8B5E3C" stroke-width="2" stroke-miterlimit="10" d="M5.711,70.137l15.5-0.036
	c0,0,4.01,3.991,0.023,10l-6.861,0.016l0.018,7.5l-4.139,0.01l-0.35-6.833l-4.167-0.323C5.735,80.471,0.56,76.482,5.711,70.137z"/>
<path fill="#B58B3C" stroke="#8B5E3C" stroke-width="2" stroke-miterlimit="10" d="M5.711,87.663l15.5-0.036
	c0,0,4.01,3.991,0.023,10l-6.861,0.016l0.018,7.5l-4.139,0.01l-0.35-6.833l-4.167-0.323C5.735,97.997,0.56,94.007,5.711,87.663z"/>
<path fill="#B58B3C" stroke="#8B5E3C" stroke-width="2" stroke-miterlimit="10" d="M5.711,105.188l15.5-0.036
	c0,0,4.01,3.991,0.023,10l-6.861,0.016l0.018,7.5l-4.139,0.01l-0.35-6.833l-4.167-0.323C5.735,115.522,0.56,111.533,5.711,105.188z"
	/>
<path fill="#B58B3C" stroke="#8B5E3C" stroke-width="2" stroke-miterlimit="10" d="M5.711,122.713l15.5-0.036
	c0,0,4.01,3.991,0.023,10l-6.861,0.016l0.018,7.5l-4.139,0.01l-0.35-6.833l-4.167-0.323C5.735,133.047,0.56,129.058,5.711,122.713z"
	/>
<path fill="#B58B3C" stroke="#8B5E3C" stroke-width="2" stroke-miterlimit="10" d="M5.711,140.239l15.5-0.036
	c0,0,4.01,3.991,0.023,10l-6.861,0.016l0.018,7.5l-4.139,0.01l-0.35-6.833l-4.167-0.323C5.735,150.573,0.56,146.583,5.711,140.239z"
	/>
<path fill="#B58B3C" stroke="#8B5E3C" stroke-width="2" stroke-miterlimit="10" d="M5.711,157.764l15.5-0.036
	c0,0,4.01,3.991,0.023,10l-6.861,0.016l0.018,7.5l-4.139,0.01l-0.35-6.833l-4.167-0.323C5.735,168.098,0.56,164.109,5.711,157.764z"
	/>
<path fill="#B58B3C" stroke="#8B5E3C" stroke-width="2" stroke-miterlimit="10" d="M5.711,175.29l15.5-0.036
	c0,0,4.01,3.991,0.023,10l-6.861,0.016l0.018,7.5l-4.139,0.01l-0.35-6.833l-4.167-0.323C5.735,185.624,0.56,181.634,5.711,175.29z"
	/>
<path fill="#B58B3C" stroke="#8B5E3C" stroke-width="2" stroke-miterlimit="10" d="M5.711,192.815l15.5-0.036
	c0,0,4.01,3.991,0.023,10l-6.861,0.016l0.018,7.5l-4.139,0.01l-0.35-6.833l-4.167-0.323C5.735,203.149,0.56,199.16,5.711,192.815z"
	/>
<path fill="#B58B3C" stroke="#8B5E3C" stroke-width="2" stroke-miterlimit="10" d="M5.711,210.34l15.5-0.036
	c0,0,4.01,3.991,0.023,10l-6.861,0.016l0.018,7.5l-4.139,0.01l-0.35-6.833l-4.167-0.323C5.735,220.674,0.56,216.685,5.711,210.34z"
	/>
<path fill="#B58B3C" stroke="#8B5E3C" stroke-width="2" stroke-miterlimit="10" d="M5.711,227.866l15.5-0.036
	c0,0,4.01,3.991,0.023,10l-6.861,0.016l0.018,7.5l-4.139,0.01l-0.35-6.833L5.735,238.2C5.735,238.2,0.56,234.21,5.711,227.866z"/>
<path fill="#B58B3C" stroke="#8B5E3C" stroke-width="2" stroke-miterlimit="10" d="M5.711,245.391l15.5-0.036
	c0,0,4.01,3.991,0.023,10l-6.861,0.016l0.018,7.5l-4.139,0.01l-0.35-6.833l-4.167-0.323C5.735,255.725,0.56,251.736,5.711,245.391z"
	/>
<path fill="#B58B3C" stroke="#8B5E3C" stroke-width="2" stroke-miterlimit="10" d="M5.711,262.917l15.5-0.036
	c0,0,4.01,3.991,0.023,10l-6.861,0.016l0.018,7.5l-4.139,0.01l-0.35-6.833l-4.167-0.323C5.735,273.25,0.56,269.261,5.711,262.917z"
	/>
<path fill="#B58B3C" stroke="#8B5E3C" stroke-width="2" stroke-miterlimit="10" d="M5.711,280.442l15.5-0.036
	c0,0,4.01,3.991,0.023,10l-6.861,0.016l0.018,7.5l-4.139,0.01l-0.35-6.833l-4.167-0.323C5.735,290.776,0.56,286.787,5.711,280.442z"
	/>
<path fill="#B58B3C" stroke="#8B5E3C" stroke-width="2" stroke-miterlimit="10" d="M5.711,297.967l15.5-0.036
	c0,0,4.01,3.99,0.023,10l-6.861,0.016l0.018,7.5l-4.139,0.01l-0.35-6.832l-4.167-0.324C5.735,308.301,0.56,304.313,5.711,297.967z"
	/>
<path fill="#B58B3C" stroke="#8B5E3C" stroke-width="2" stroke-miterlimit="10" d="M5.711,315.492l15.5-0.035
	c0,0,4.01,3.99,0.023,10l-6.861,0.016l0.018,7.5l-4.139,0.01l-0.35-6.832l-4.167-0.324C5.735,325.826,0.56,321.838,5.711,315.492z"
	/>
<path fill="#B58B3C" stroke="#8B5E3C" stroke-width="2" stroke-miterlimit="10" d="M5.711,333.018l15.5-0.035
	c0,0,4.01,3.99,0.023,10l-6.861,0.016l0.018,7.5l-4.139,0.01l-0.35-6.832l-4.167-0.324C5.735,343.352,0.56,339.363,5.711,333.018z"
	/>
<path fill="#B58B3C" stroke="#8B5E3C" stroke-width="2" stroke-miterlimit="10" d="M5.711,350.543l15.5-0.035
	c0,0,4.01,3.99,0.023,10l-6.861,0.016l0.018,7.5l-4.139,0.01l-0.35-6.832l-4.167-0.324C5.735,360.877,0.56,356.889,5.711,350.543z"
	/>
<path fill="#B58B3C" stroke="#8B5E3C" stroke-width="2" stroke-miterlimit="10" d="M5.711,368.068l15.5-0.035
	c0,0,4.01,3.99,0.023,10l-6.861,0.016l0.018,7.5l-4.139,0.01l-0.35-6.832l-4.167-0.324C5.735,378.402,0.56,374.414,5.711,368.068z"
	/>
<path fill="#B58B3C" stroke="#8B5E3C" stroke-width="2" stroke-miterlimit="10" d="M5.711,385.594l15.5-0.035
	c0,0,4.01,3.99,0.023,10l-6.861,0.016l0.018,7.5l-4.139,0.01l-0.35-6.832l-4.167-0.324C5.735,395.928,0.56,391.939,5.711,385.594z"
	/>
<path fill="#B58B3C" stroke="#8B5E3C" stroke-width="2" stroke-miterlimit="10" d="M5.711,403.119l15.5-0.035
	c0,0,4.01,3.99,0.023,10l-6.861,0.016l0.018,7.5l-4.139,0.01l-0.35-6.832l-4.167-0.324C5.735,413.453,0.56,409.465,5.711,403.119z"
	/>
<path fill="#B58B3C" stroke="#8B5E3C" stroke-width="2" stroke-miterlimit="10" d="M5.711,420.645l15.5-0.035
	c0,0,4.01,3.99,0.023,10l-6.861,0.016l0.018,7.5l-4.139,0.01l-0.35-6.832l-4.167-0.324C5.735,430.979,0.56,426.99,5.711,420.645z"/>
<path fill="#B58B3C" stroke="#8B5E3C" stroke-width="2" stroke-miterlimit="10" d="M5.711,438.17l15.5-0.035c0,0,4.01,3.99,0.023,10
	l-6.861,0.016l0.018,7.5l-4.139,0.01l-0.35-6.832l-4.167-0.324C5.735,448.504,0.56,444.516,5.711,438.17z"/>
<path fill="#B58B3C" stroke="#8B5E3C" stroke-width="2" stroke-miterlimit="10" d="M5.711,455.695l15.5-0.035
	c0,0,4.01,3.99,0.023,10l-6.861,0.016l0.018,7.5l-4.139,0.01l-0.35-6.832l-4.167-0.324C5.735,466.029,0.56,462.041,5.711,455.695z"
	/>
<path fill="#B58B3C" stroke="#8B5E3C" stroke-width="2" stroke-miterlimit="10" d="M5.711,473.221l15.5-0.035
	c0,0,4.01,3.99,0.023,10l-6.861,0.016l0.018,7.5l-4.139,0.01l-0.35-6.832l-4.167-0.324C5.735,483.555,0.56,479.566,5.711,473.221z"
	/>
<path fill="#B58B3C" stroke="#8B5E3C" stroke-width="2" stroke-miterlimit="10" d="M5.711,490.746l15.5-0.035
	c0,0,4.01,3.99,0.023,10l-6.861,0.016l0.018,7.5l-4.139,0.01l-0.35-6.832l-4.167-0.324C5.735,501.08,0.56,497.092,5.711,490.746z"/>
<path fill="#B58B3C" stroke="#8B5E3C" stroke-width="2" stroke-miterlimit="10" d="M5.711,508.271l15.5-0.035
	c0,0,4.01,3.99,0.023,10l-6.861,0.016l0.018,7.5l-4.139,0.01l-0.35-6.832l-4.167-0.324C5.735,518.605,0.56,514.617,5.711,508.271z"
	/>
<path fill="#B58B3C" stroke="#8B5E3C" stroke-width="2" stroke-miterlimit="10" d="M5.711,525.797l15.5-0.035
	c0,0,4.01,3.99,0.023,10l-6.861,0.016l0.018,7.5l-4.139,0.01l-0.35-6.832l-4.167-0.324C5.735,536.131,0.56,532.143,5.711,525.797z"
	/>
<path fill="#B58B3C" stroke="#8B5E3C" stroke-width="2" stroke-miterlimit="10" d="M5.711,543.322l15.5-0.035
	c0,0,4.01,3.99,0.023,10l-6.861,0.016l0.018,7.5l-4.139,0.01l-0.35-6.832l-4.167-0.324C5.735,553.656,0.56,549.668,5.711,543.322z"
	/>
<path fill="#B58B3C" stroke="#8B5E3C" stroke-width="2" stroke-miterlimit="10" d="M5.711,560.848l15.5-0.035
	c0,0,4.01,3.99,0.023,10l-6.861,0.016l0.018,7.5l-4.139,0.01l-0.35-6.832l-4.167-0.324C5.735,571.182,0.56,567.193,5.711,560.848z"
	/>
<path fill="#B58B3C" stroke="#8B5E3C" stroke-width="2" stroke-miterlimit="10" d="M5.711,578.373l15.5-0.035
	c0,0,4.01,3.99,0.023,10l-6.861,0.016l0.018,7.5l-4.139,0.01l-0.35-6.832l-4.167-0.324C5.735,588.707,0.56,584.719,5.711,578.373z"
	/>
<path fill="#B58B3C" stroke="#8B5E3C" stroke-width="2" stroke-miterlimit="10" d="M5.711,595.898l15.5-0.035
	c0,0,4.01,3.99,0.023,10l-6.861,0.016l0.018,7.5l-4.139,0.01l-0.35-6.832l-4.167-0.324C5.735,606.232,0.56,602.244,5.711,595.898z"
	/>
</svg>
